# xmcd
#
# Track frame offsets:
# 150
# 18938
# 38984
# 59386
# 73917
# 93725
# 114685
# 134445
# 149947
# 167036
# 188315
#
# Disc length: 2807 seconds
#
#
# Revision: 3
# Processed by: cddbd v1.5.2PL0 Copyright (c) Steve Scherf et al.
# Submitted via: FreeRIP 2.944 
#
DISCID=a60af50b
DTITLE=Viktoria Tolstoy - My Swedish Heart
DYEAR=2005
DGENRE=Jazz
TTITLE0=Grandmas Song
TTITLE1=Mind If I
TTITLE2=From Above
TTITLE3=Dialogue
TTITLE4=You Gave Me The Flow
TTITLE5=Den Första Gâng
TTITLE6=Dannys Dreaming
TTITLE7=The Morning Of You
TTITLE8=Mayday
TTITLE9=I Hope It's Spring For You
TTITLE10=Jag Yet En Dejlig Rosa
EXTD=YEAR: 2005
EXTT0=
EXTT1=
EXTT2=
EXTT3=
EXTT4=
EXTT5=
EXTT6=
EXTT7=
EXTT8=
EXTT9=
EXTT10=
PLAYORDER=
